<svg xmlns="http://www.w3.org/2000/svg" viewBox="0 0 52.97 52.94"><defs><style>.cls-1{fill:#333;}</style></defs><g id="Capa_2" data-name="Capa 2"><g id="icon"><path class="cls-1" d="M53,9.84c0-.89-1.37-.89-1.39,0-.16,5.74-2.93,8.54-8.46,9S28.2,20.63,27.2,13.32a.64.64,0,0,0-.14-.31c.1-1.34.05-2.71.06-3.95a.7.7,0,0,0-1.39,0c0,2.4.34,5.8-1.47,7.63-2.16,2.18-6.42,2.6-9.32,2.69-2.66.08-6.25.24-8.63-1C3.24,16.84,1.56,13.2,1.39,9.93,1.35,9,0,9,0,9.93a11.84,11.84,0,0,0,4,8.48C5,21.67,5.34,25,6.13,28.33c.7,3,1.79,5.71,2.12,8.75a42.82,42.82,0,0,1,.27,7.84c-.2,2.5-1.19,4.86-1.49,7.35-.1.89,1.29.89,1.4,0,.31-2.6,1.36-5,1.5-7.67a47.2,47.2,0,0,0-.39-8.4,50.54,50.54,0,0,0-1.76-7c-.85-3.14-1.19-6.37-2-9.51C8.5,21,12,20.87,14.94,20.78c3.35-.11,7.8-.63,10.3-3.1a5.57,5.57,0,0,0,1.22-1.85c2.53,5.91,11.5,5,17.17,4.39a13,13,0,0,0,3.84-.93,42.32,42.32,0,0,0-1.73,7.63c-.56,3-1.77,5.77-2.2,8.76a48,48,0,0,0-.46,8.56c.1,2.76,1.15,5.31,1.47,8,.1.88,1.5.89,1.39,0-.28-2.38-1.18-4.65-1.43-7a39.78,39.78,0,0,1,.26-8.16c.3-2.82,1.27-5.37,1.95-8.11.9-3.65.89-7.4,2.78-10.77a.75.75,0,0,0,0-.16C51.74,16.3,52.87,13.56,53,9.84Z"/><path class="cls-1" d="M38.42,26.2c-1.23,2.15-10.28,1.74-11.35-.34a1.24,1.24,0,0,0-.14-.18,17.78,17.78,0,0,0,0-4.45c-.05-.89-1.45-.9-1.4,0,.18,3,.82,5.81-3.22,6.18-2.41.22-6.26.84-8.1-1a.7.7,0,0,0-1,1c2.42,2.45,7.28,1.88,10.36,1.28a4.08,4.08,0,0,0,2.68-1.5c1.45,1.67,4.52,1.62,6.5,1.66,2.13,0,5.59.27,6.83-1.9C40.06,26.13,38.86,25.42,38.42,26.2Z"/><path class="cls-1" d="M25.35,35.84a3.71,3.71,0,0,1-2.79,1.24c-2.31.14-6.1.48-6.24-2.73,0-.89-1.43-.9-1.39,0,.06,1.48.31,2.84,1.76,3.52,1.8.84,3.95.72,5.87.6,1.4-.08,3,0,3.8-1.39l0,0a2.57,2.57,0,0,0,.94.79c1.6.8,3.75.68,5.47.73,2.8.08,4.8-1.11,5.23-4.06.12-.88-1.22-1.26-1.35-.37-.34,2.38-1.76,3.09-3.88,3s-5,.3-5.83-2.29h0a19.48,19.48,0,0,0,0-2.66c-.05-.89-1.44-.9-1.39,0a14.72,14.72,0,0,1,0,2.1A4.41,4.41,0,0,1,25.35,35.84Z"/><path class="cls-1" d="M45.38,16.77a.7.7,0,0,0,0-1.4A.7.7,0,0,0,45.38,16.77Z"/><path class="cls-1" d="M7.71,16.77a.7.7,0,0,0,0-1.4A.7.7,0,0,0,7.71,16.77Z"/><path class="cls-1" d="M36.7,43.71c0,1.39,0,2.26-1.48,2.67a7.17,7.17,0,0,1-2.26.15c-2.08-.08-5.23.42-5.72-2.3a22,22,0,0,0,0-3c0-.9-1.42-.9-1.39,0a7.22,7.22,0,0,1-.34,3.46c-.5,1.05-1.39,1.21-2.49,1.39a17.21,17.21,0,0,1-3.66.13c-2-.09-2.33-1-2.61-2.73-.14-.88-1.49-.5-1.34.37.21,1.3.42,2.71,1.7,3.36,1.61.8,4.19.52,5.9.27,1.12-.16,2.72-.44,3.55-1.35,1.34,1.88,4.35,1.67,6.65,1.77a7.65,7.65,0,0,0,3.67-.57c1.32-.73,1.25-2.33,1.27-3.66A.7.7,0,0,0,36.7,43.71Z"/><path class="cls-1" d="M13.11,1.61c3.58,0,6.66-.41,9.57,2,.68.56,1.68-.42,1-1C20.38-.08,17.2.21,13.11.22A.7.7,0,0,0,13.11,1.61Z"/><path class="cls-1" d="M30.09,3.58C32.47,1,36.62,1.51,39.85,1.39c.89,0,.9-1.42,0-1.39-3.68.13-8-.33-10.74,2.6C28.5,3.25,29.48,4.24,30.09,3.58Z"/></g></g></svg>