<svg xmlns="http://www.w3.org/2000/svg" viewBox="0 0 30.78 61.4"><defs><style>.cls-1{fill:#333;}</style></defs><g id="Capa_2" data-name="Capa 2"><g id="icon"><path class="cls-1" d="M30.57,42.49c-.09-1.87,0-3-1.09-4.48a12.61,12.61,0,0,1-1.93-2.41c-1.37-3.11.62-4,1.94-6.1a7.87,7.87,0,0,0,.84-4.77c-.11-2.66,0-5.67-.6-8.28a3.62,3.62,0,0,0-3.32-3.1c-.27,0-.56-.07-.83-.12.11-2,.33-5-1.56-6.09a9,9,0,0,0-4.75-.79,15,15,0,0,0-.16-2c.88-.22,1.55-.67,1.46-1.59C20.37.47,17.31,0,15.62,0a5.88,5.88,0,0,0-4,1c-.77.6-1.93,1.55-1.59,2.69.2.68.88,1,1.72,1.08,0,.63.05,1.28.1,1.92-1.71-.07-3.61-.1-4.81.51-2.14,1.09-1.77,4.09-1.55,6-1.64.21-3.3.48-4.12,2.05-1,1.92-.65,5-.58,7.07.1,2.69-.24,5,1.24,7.29.85,1.3,2,2.15,1.92,3.82-.06,1.93-1.17,3-2.23,4.48a8.32,8.32,0,0,0-1.5,4.26,61.83,61.83,0,0,0-.19,8.39C.11,53-.31,56.6.52,59c.53,1.55,1.56,1.82,3.06,2a76.73,76.73,0,0,0,11.84.3c3.53,0,7.08.06,10.61,0,1.5-.05,3-.1,3.79-1.49,1-1.75.77-4.83.87-6.76C30.87,49.51,30.74,46,30.57,42.49ZM12.51,2.06a5.18,5.18,0,0,1,3.11-.67,5.87,5.87,0,0,1,2,.15c.29.11,1.62,1,1.53,1.28-.15.51-3.06.31-3.55.32a32.74,32.74,0,0,1-3.43.1c-.1,0-.7,0-.74-.05S12.36,2.16,12.51,2.06Zm.67,2.7c1,0,1.9-.2,2.43-.23s1.28,0,2.12,0a9.76,9.76,0,0,1,.06,1c0,.29.05.58.08.86-1.35.11-2.64.26-3.65.28-.28,0-.6,0-.93,0C13.24,6.05,13.18,5.4,13.18,4.76ZM9,8.31c1.9-.2,3.86-.18,5.77-.21S18.6,8,20.51,8c3.67,0,3.79,2,3.67,5-2.73-.29-5.56-.24-8.25-.4a69.56,69.56,0,0,0-9,.36C6.68,11,6.53,8.58,9,8.31ZM29.36,51.4c-.06,2.29.32,6.35-1.54,7.77s-5.53.68-7.78.7c-2.86,0-5.72.1-8.58.08-2.56,0-8.5.84-9.69-2.19-.67-1.71-.26-4.88-.3-6.76-.05-2.35-.09-4.72,0-7.07s.38-3.91,1.8-5.79a8.54,8.54,0,0,0,2-3.75,5.68,5.68,0,0,0-.91-4.27C3.65,29,2.92,28.51,2.55,27.18a20.52,20.52,0,0,1-.32-4.9C2.11,19,1.77,15.2,5.8,14.58A64.65,64.65,0,0,1,15.93,14c2.62.15,5.24.25,7.85.44,1.7.12,3.62,0,4.52,1.94a10.51,10.51,0,0,1,.4,3.63c.1,1.91.3,3.85.28,5.75,0,2.26-1.19,3.22-2.31,4.92a5.7,5.7,0,0,0,.65,7.07c.45.54,1.21,1,1.53,1.61.55,1.1.33,3.09.38,4.31C29.35,46.27,29.43,48.83,29.36,51.4Z"/><path class="cls-1" d="M10.24,32A51,51,0,0,0,21,31.88c.88-.11.89-1.5,0-1.4a51,51,0,0,1-10.77.1C9.35,30.49,9.36,31.89,10.24,32Z"/><path class="cls-1" d="M21.43,36.31a27.4,27.4,0,0,0-11.82-.17c-.88.17-.5,1.52.37,1.34a25.72,25.72,0,0,1,11.08.17C21.93,37.86,22.31,36.51,21.43,36.31Z"/><path class="cls-1" d="M4.85,17.51c-1.71,1.38-1.18,3.76-1.11,5.7,0,.89,1.42.9,1.39,0,0-1.49-.59-3.66.7-4.72C6.53,17.93,5.54,17,4.85,17.51Z"/><path class="cls-1" d="M7.15,15.91a.7.7,0,0,0,0,1.4A.7.7,0,0,0,7.15,15.91Z"/></g></g></svg>