<svg xmlns="http://www.w3.org/2000/svg" viewBox="0 0 61.31 44.75"><defs><style>.cls-1{fill:#333;}</style></defs><g id="Capa_2" data-name="Capa 2"><g id="icon"><path class="cls-1" d="M61.17,37.15a3.21,3.21,0,0,0-1.71-2.66,6.43,6.43,0,0,0-2.31-.27c-1.09,0-2.17-.06-3.25,0-.25-.7-.53-1.4-.78-2.11C52,28.91,50.88,25.72,50,22.46c-.76-2.81-1.91-5.65-2.53-8.47,2.13-.24,4.27-.48,6.39-.76s5.63-.11,5.42-2.9c-.17-2.44-1.42-2.94-3-2.89-.51-2-1.71-7.69-4.19-7.43C50.56.17,48.24,2.55,47,3.35a77.35,77.35,0,0,0-7.76,5.58.7.7,0,0,0-.16.19c-.69.06-1.38.11-2.06.18-5.53.5-11.09,1-16.61,1.61-2.28.26-5.26.15-4.94,3.1s2.55,2.72,4.91,2.6q9.08-.48,18.1-1.59a.77.77,0,0,0,0,.15c2.31,6.32,4.45,12.7,6.55,19.09-13.56.22-27.15-.39-40.68.68-3.66.3-4.77,1-4.27,4.89.31,2.46,1.6,2.67,4,2.73l1.64,0a.59.59,0,0,0-.06.2c-.27,2.62,3.46,1.87,5.07,1.82.91,0,2.47.26,3.3-.18a1.87,1.87,0,0,0,.73-1.68c11,.13,22,.07,32.93.14A3.35,3.35,0,0,0,48.59,44c1.38,1,6.25.92,7.54.11a1.48,1.48,0,0,0,.78-1.74c1.37-.06,2.61-.2,3.56-1.39A4.47,4.47,0,0,0,61.17,37.15ZM51,2.34c.16-.11,1-.91,1.18-.87.4.09.77,1.32,1,1.74a23,23,0,0,1,1.63,4.37c-.52.08-1.06.17-1.58.23-3.89.48-7.83.79-11.75,1.11C44.57,6.54,47.89,4.58,51,2.34ZM17,14.11c-.56-2.33,7.76-2.19,9.56-2.38,3.7-.38,7.39-.75,11.1-1.09,3.29-.31,6.55-.82,9.86-1,1.53-.08,3.06-.16,4.59-.33.88-.09,4.38-1.07,5.2-.41,2.1,1.69-1.59,2.65-2.59,2.79-1.83.27-3.68.48-5.53.69-3.4.38-6.81.74-10.2,1.16-3.78.47-7.56.87-11.36,1.17C25.67,14.89,17.52,16.35,17,14.11ZM12.76,43.16a16.81,16.81,0,0,1-2,.06c-.46,0-3.76.38-3.68-.43a.52.52,0,0,0,0-.18c2.12,0,4.23.09,6.35.11C13.38,43.05,13.25,43.08,12.76,43.16ZM9,41.22a48.41,48.41,0,0,1-5.39-.06c-2.07-.26-2-.39-2.12-1.95-.09-1.26-.16-1.84.84-2.51,1.84-1.21,6.64-.68,8.87-.77,11.45-.5,22.91-.08,34.36-.28.11.32.21.64.32,1,.38,1.16.69,3.2,1.26,4.89Q28,41.37,9,41.22Zm42.78,1.83c-2.09-.2-2.62-.81-3.22-2.69s-1.22-3.76-1.84-5.63l0-.08c-.28-.85-.55-1.7-.83-2.55C43.9,26.34,42,20.57,39.88,14.86c2.06-.25,4.13-.48,6.2-.71a.22.22,0,0,1,0,.08c.49,2.28,1.55,4.41,2.09,6.7s1.26,4.63,2,6.9c.81,2.48,1.68,4.93,2.58,7.37h0l.18.51c.55,1.5,2.54,4.69,2.37,6.27C55.18,43.3,53,43.17,51.74,43.05Zm7.85-3.23C58.87,41,57.65,41,56.43,41l-.12-.3c-.66-1.7-1.27-3.4-1.9-5.11.91,0,1.82,0,2.74,0,1.23,0,2.18,0,2.55,1.29A3.74,3.74,0,0,1,59.59,39.82Z"/><path class="cls-1" d="M45.25,19.45c-.3-.84-1.64-.48-1.34.37,2.06,5.85,3.85,11.78,6,17.59.31.84,1.66.48,1.35-.37C49.11,31.23,47.31,25.3,45.25,19.45Z"/><path class="cls-1" d="M27.55,23.35a.7.7,0,0,0,0-1.39c-3.52,0-7-.13-10.55-.14a.7.7,0,0,0,0,1.4C20.51,23.22,24,23.36,27.55,23.35Z"/><path class="cls-1" d="M10.06,23.29c.8,0,1.61,0,2.41,0a.7.7,0,0,0,0-1.4c-.8,0-1.61,0-2.41,0A.7.7,0,0,0,10.06,23.29Z"/><path class="cls-1" d="M9.77,29.14c5.06-.28,10.2,0,15.27-.08a.7.7,0,0,0,0-1.39c-5.08.1-10.21-.2-15.27.08C8.88,27.8,8.87,29.19,9.77,29.14Z"/><path class="cls-1" d="M35.12,29.2c.9.07.89-1.32,0-1.39-2-.15-4,0-6,0a.7.7,0,0,0,0,1.4C31.09,29.19,33.11,29.05,35.12,29.2Z"/><path class="cls-1" d="M3.51,29.15a15.63,15.63,0,0,1,2.56,0c.89.09.89-1.31,0-1.39a15.63,15.63,0,0,0-2.56,0C2.62,27.84,2.61,29.23,3.51,29.15Z"/></g></g></svg>