<svg xmlns="http://www.w3.org/2000/svg" viewBox="0 0 58.73 53.49"><defs><style>.cls-1{fill:#333;}</style></defs><g id="Capa_2" data-name="Capa 2"><g id="icon"><path class="cls-1" d="M45.32.32c-6.48-1-13.48,2.45-15.73,8.57A13.87,13.87,0,0,0,23.39,2C18.82-.55,14.33-.59,9.44,1.47,5.66,3.06,2.7,7.25,1.12,10.89c-2,4.6-1,10.23.26,14.89a.7.7,0,0,0,1.34-.37C.66,17.63,1,9,8.09,3.84,11.42,1.39,17.15.53,20.85,2.22c3.88,1.77,7.74,5.24,8,9.77a.7.7,0,0,0,1.39,0c.73-8.3,10.91-12.73,18-9.35,7.58,3.6,10.78,13.77,8.28,21.48C55,29,48.79,27.78,44.68,27.81c-2.33,0-4.67,0-7,0-.32,0-1.61,0-1.57,0-.37-.23-1.31-3-1.54-3.58a.69.69,0,0,0-1.36.18c-.46,3.61-1.41,7.12-2.15,10.68-.73-6-1-12-2-18a.71.71,0,0,0-1.35,0q-1.44,6.22-2.87,12.45l-1.29-5.78c-.14-.64-1.23-.68-1.34,0-.15,1-.39,3.56-1,4-.44.31-2.1,0-2.68,0l-7.59-.05c-2.76,0-7.1-.57-7,3.58.06,2.17,2.07,4.37,3.36,6a38.28,38.28,0,0,0,6.43,6.16c4.81,3.77,10.19,6.69,15.39,9.88a.72.72,0,0,0,.71,0A77.25,77.25,0,0,0,53.52,33.18c.55-.69-.43-1.68-1-1A73.27,73.27,0,0,1,37.35,47.07c-1.87,1.29-6,5-8.28,4.69-1.09-.16-2.6-1.55-3.55-2.12-1.47-.86-2.93-1.73-4.37-2.64a66,66,0,0,1-9.06-6.61c-1.68-1.51-10-9.51-4.53-11.22,2.08-.64,5.48,0,7.66,0l6.48,0a.7.7,0,0,0,.68-.51c.16-.53.31-1.05.46-1.58L24.13,33a.71.71,0,0,0,1.35,0l2.73-11.83c.79,6.19,1.07,12.44,2.1,18.61.14.84,1.28.52,1.37-.19.53-4.2,1.72-8.27,2.49-12.43a3.12,3.12,0,0,0,2.4,2.08c3.15.51,6.85,0,10,0,2.93,0,6.83.63,9.28-1.35,2.12-1.72,2.54-4.76,2.77-7.3C59.41,11.92,54.68,1.73,45.32.32Z"/></g></g></svg>