<svg xmlns="http://www.w3.org/2000/svg" viewBox="0 0 25.51 61.49"><defs><style>.cls-1{fill:#333;}</style></defs><g id="Capa_2" data-name="Capa 2"><g id="icon"><path class="cls-1" d="M25,33.76c0-1.63.41-4-.35-5.53-.89-1.79-1.68-2.71-.51-4.71.32-.54.86-.76,1.09-1.39.92-2.47-.5-5.68-1.73-7.73a12,12,0,0,0-1.91-2.57c-1.55-1.45-1.94-1.95-1.93-4.3.39,0,.78,0,1.17,0,.89,0,.89-1.43,0-1.4l-.49,0c.11-1.64.57-4.88-.71-5.65S14.84.18,13.28.19c-1.95,0-4.44-.26-6.34.25C4.79,1,5.51,4.35,5.51,6.23H5.22a.7.7,0,0,0,0,1.4h.94c0,1.88,0,2.47-1.37,3.73A14,14,0,0,0,3.12,13,12.21,12.21,0,0,0,.35,20.3c0,1.91.35,2,1.27,3.44C3.7,27,.79,27.29.3,29.9c-.68,3.61,0,8,0,11.74,0,2.71.07,5.42.09,8.13,0,2.44-.36,5.21.06,7.61.68,3.92,4.58,3.83,7.75,4s6.23,0,9.35,0c2.5,0,4.52,0,6.2-2.07,2.48-3.08,1.28-9,1.26-12.63C25,42.38,25,38.07,25,33.76ZM1.69,32.81c0-.34,0-.63,0-.9,7.28-.48,14.58,0,21.87-.27.1,7,.06,14,.11,21v0c-3.61.84-7.11.26-10.77.32s-7.36.34-11.08.13C1.83,46.38,1.69,39.59,1.69,32.81Zm5.36-30c.39-1.42.55-.92,1.54-1.09a29.34,29.34,0,0,1,4.69-.13,17.74,17.74,0,0,1,4.31,0c1.86.5,1.43,2.8,1.34,4.54-4,.13-8,.15-12,.09A16.13,16.13,0,0,1,7.05,2.81ZM4,24.56c-.31-.9-1.06-1.26-1.57-2a3.93,3.93,0,0,1-.57-3,10.32,10.32,0,0,1,5.4-8,.71.71,0,0,0,.34-.6c0-1.1,0-2.2,0-3.3,3.57.05,7.13,0,10.7-.08,0,1.13,0,2.25,0,3.38a.69.69,0,0,0,.34.6A10.6,10.6,0,0,1,23.66,18a5.34,5.34,0,0,1-.31,4.31c-.4.65-1,1.05-1.33,1.78a3.53,3.53,0,0,0,0,3c.34.81,1.21,1.37,1.48,2.21a3.16,3.16,0,0,1,.09.9c-7.26.24-14.52-.2-21.77.26A7,7,0,0,1,3.11,28C3.89,26.9,4.43,26,4,24.56ZM19.61,60c-2.38.54-5.71.07-8.14.08A37.33,37.33,0,0,1,6,59.84c-1-.16-2.62-.24-3.35-1-.92-1-.79-2.82-.79-4.08a1.33,1.33,0,0,0,0-.2c4.11.22,8.15-.21,12.24-.13,3.28.06,6.39.37,9.6-.29C23.58,56.83,23,59.25,19.61,60Z"/><path class="cls-1" d="M9.05,44c.59,0,1.17-.06,1.75-.1a31.93,31.93,0,0,1-1.68,6c-.29.65.56,1.52,1.1.84l.1-.14h0c2.43-3.09,4.68-6.32,7.11-9.41A.71.71,0,0,0,17,40c-.91-.05-1.83-.08-2.75-.11.19-1.63.34-3.26.51-4.89a.52.52,0,0,0,0-.37.59.59,0,0,0-.68-.44.66.66,0,0,0-.6.3c-1.84,2.72-3.29,5.68-5,8.51A.7.7,0,0,0,9.05,44Zm3.31-.66a.7.7,0,0,0-.67-.88c-.47,0-.93,0-1.39.08.92-1.62,1.81-3.25,2.75-4.85-.1.94-.19,1.89-.31,2.83-.05.38.36.68.69.7l2.17.08q-2,2.64-4,5.31C11.85,45.52,12.08,44.42,12.36,43.33Z"/><path class="cls-1" d="M9.43,4.58V3.32A.7.7,0,0,0,8,3.32V4.58A.7.7,0,0,0,9.43,4.58Z"/><path class="cls-1" d="M12.17,4.58V3.32a.7.7,0,0,0-1.39,0V4.58A.7.7,0,0,0,12.17,4.58Z"/><path class="cls-1" d="M14.91,4.58V3.32a.7.7,0,0,0-1.39,0V4.58A.7.7,0,0,0,14.91,4.58Z"/><path class="cls-1" d="M17.65,4.58V3.32a.7.7,0,0,0-1.39,0V4.58A.7.7,0,0,0,17.65,4.58Z"/><path class="cls-1" d="M5.51,21c0-2.22.62-4.43,2.64-5.61a.69.69,0,0,0-.7-1.2C5,15.6,4.12,18.27,4.11,21A.7.7,0,0,0,5.51,21Z"/><path class="cls-1" d="M9.27,14.45a.7.7,0,0,0,0-1.4A.7.7,0,0,0,9.27,14.45Z"/></g></g></svg>