<svg xmlns="http://www.w3.org/2000/svg" viewBox="0 0 50.16 53.08"><defs><style>.cls-1{fill:#333;}</style></defs><g id="Capa_2" data-name="Capa 2"><g id="icon"><path class="cls-1" d="M42.09,11.71a10.53,10.53,0,0,0-6.41-.22c.12-.13.26-.24.38-.38A11.35,11.35,0,0,0,38,.73a.53.53,0,0,0-.08-.15A.59.59,0,0,0,37.25,0,13.52,13.52,0,0,0,25.63,9.31,19.8,19.8,0,0,0,18.87.21a.55.55,0,0,0-.59-.08l-.06,0-.11.08L18,.31A11.35,11.35,0,0,0,16,4.89a.61.61,0,0,0,.15.61.6.6,0,0,0,.34.25,11.63,11.63,0,0,1,7.83,8.08c-4.3-.72-8-3.44-12.62-2.86a12.79,12.79,0,0,0-9.85,7.69C-3,29.06,2.55,41.53,9.33,49.71c3.56,4.29,6.86,3.82,11.73,2.21,3.52-1.17,5.92-.5,9.35.36a15.52,15.52,0,0,0,6,.67c4.73-.75,7.77-6.49,9.48-10.42,2.5-5.78,4.43-11.71,4.25-18.08C50,19.17,47.28,13.68,42.09,11.71ZM36.74,1.46a9.8,9.8,0,0,1-2.12,9.17c-2.07,2.12-5.26,2.83-8.14,3.25a.52.52,0,0,0,0-.18A11.85,11.85,0,0,1,36.74,1.46ZM17.47,4.65A10.07,10.07,0,0,1,18.66,1.8a17.94,17.94,0,0,1,5.91,9A13.1,13.1,0,0,0,17.47,4.65ZM39.54,49.72c-4.63,4.33-9.79-.27-15-.06-2.48.11-4.66,1.41-7,2-4.23,1.06-6.72-2-8.82-5.19-3.56-5.39-6.85-11.23-7.27-17.8S3.89,13.8,11.2,12.45c5.23-1,9.23,2.53,14.21,2.91a.58.58,0,0,0,.3,0,15.36,15.36,0,0,0,4.21-.76A18.35,18.35,0,0,0,31.86,14c3-1,5.87-2.08,8.93-1.24C49.12,15,49.61,25.37,48,32.29,46.69,38.22,44.08,45.49,39.54,49.72Z"/><path class="cls-1" d="M12.75,16.54c-4.7,1.94-7.08,7.87-6.29,12.65.15.88,1.49.51,1.35-.37-.66-3.95,1.37-9.31,5.31-10.94C13.94,17.55,13.58,16.2,12.75,16.54Z"/><path class="cls-1" d="M7.39,32.07a.7.7,0,0,0,0,1.39A.7.7,0,0,0,7.39,32.07Z"/></g></g></svg>