<svg xmlns="http://www.w3.org/2000/svg" viewBox="0 0 58.54 51.14"><defs><style>.cls-1{fill:#333;}</style></defs><g id="Capa_2" data-name="Capa 2"><g id="icon"><path class="cls-1" d="M56.18,28.08c-4-5-14.54-5.88-17.25.47a10.44,10.44,0,0,0-5-3.63,12.08,12.08,0,0,0-12.88,3c0-.24,0-.47,0-.72,0-4.22-.12-9.11,1.42-13.15a6.7,6.7,0,0,0,4.57,1.56c3.41-.16,6.63-.43,8-4.05,1.28-3.4-.2-7.32-2.56-9.84C30.83,0,30.21-.09,27.8.05a60.44,60.44,0,0,0-7.11.68c-3.92.71-7.18,6.73-9.06,10C6,20.26.83,30.79,0,42a.68.68,0,0,0,.35.6c14.86,9.79,36.81,11.94,52.35,2.23C58.36,41.31,60.65,33.67,56.18,28.08ZM51.54,43.9c-8.13,4.75-18.12,6.33-27.41,5.52a51.16,51.16,0,0,1-13.86-3.19,46.51,46.51,0,0,1-7-3.4c-2.83-1.68-1.47-5.15-.81-7.92a71.24,71.24,0,0,1,6-15.39c2.42-4.81,4.89-9.71,8.33-13.88a10.83,10.83,0,0,1,3.34-3.13c1.76-.87,4-.84,6-1,1.76-.11,3.56-.38,5.07.82A8.74,8.74,0,0,1,33.81,6.8c.53,2,.37,4.89-1.47,6.24-1.29,1-3.08,1-4.66,1.13a7,7,0,0,1-1.44.12c-1.26-.15-3.47-1.53-2.35-3.1.48-.68,2.51-1,3.28-1a.7.7,0,0,0,0-1.39c-1.68-.05-5.25.94-5.48,3.06a3,3,0,0,0,0,.52c-1.46,3.14-1.72,6.72-1.87,10.14-.09,1.87,0,3.77-.11,5.63-.26,3.47-2.66,6.23-5,8.63a.7.7,0,0,0,1,1c2.31-2.33,4.2-4.6,5-7.45a.91.91,0,0,0,.16-.13c3.31-4,8-5.8,13-3.82,1.85.73,3.93,2.16,4.62,4.15.2.59,1.21.73,1.34,0,1.47-7.89,13.5-5.72,16.31.08C58.6,35.84,56.29,41.13,51.54,43.9Z"/><path class="cls-1" d="M36.36,37.71a9.15,9.15,0,0,1-7.25,2.63c-2.85-.18-5.47-.58-7.87-2.21-.74-.5-1.44.71-.7,1.21,2.82,1.91,6.12,2.34,9.47,2.44,3,.08,5.13-1.14,7.33-3.08C38,38.1,37,37.12,36.36,37.71Z"/><path class="cls-1" d="M23.33,32.37a7.24,7.24,0,0,1,3-2.68.7.7,0,0,0-.7-1.21,8.51,8.51,0,0,0-3.49,3.18C21.72,32.46,22.93,33.17,23.33,32.37Z"/><path class="cls-1" d="M27.86,29a.7.7,0,0,0,0-1.39A.7.7,0,0,0,27.86,29Z"/></g></g></svg>