<svg xmlns="http://www.w3.org/2000/svg" viewBox="0 0 61.34 34.47"><defs><style>.cls-1{fill:#333;}</style></defs><g id="Capa_2" data-name="Capa 2"><g id="icon"><path class="cls-1" d="M61.29,18c0-.54-.12-1.07-.13-1.6a2.91,2.91,0,0,0-.28-1.78c-.63-.84-1.77-.72-2.73-.7,0-1.4-.06-2.81-.06-4.21,0-1,.33-2.62-.26-3.48C56.86,4.8,54,5,52.31,4.93c0-.24,0-.48,0-.72C52,.59,50,0,46.53,0c-3.84,0-4.83,1.33-5.1,5.09-.21,3-.29,6-.33,8.94-3.66.31-7.57-.12-11.25-.08-3.15,0-6.33.06-9.48.18-.05-3-.13-5.92-.34-8.86C19.77,1.54,18.78.15,14.93.18,12.25.18,9.5.44,9.15,3.49,9.09,4,9.05,4.57,9,5.11,7.35,5.14,4.73,5,3.76,6.23,2.51,7.8,3.09,12,3.07,13.81V14a5.91,5.91,0,0,0-2.29.17c-1.13.48-.71,2.4-.69,3.36s-.35,2.58.89,2.85a8.42,8.42,0,0,0,2,.14,28.41,28.41,0,0,0,.66,6.71c.65,2.57,3.11,2.56,5.51,2.6,0,.33,0,.67.05,1,.28,3.25,2.06,3.46,4.94,3.51,1.82,0,4.7.67,5.77-1.17.63-1.08.5-3,.54-4.18.08-2.6.06-5.2,0-7.8,0-.21,0-.42,0-.63,6.85-.08,13.76.26,20.59-.1,0,2.32,0,4.65,0,7,0,1.51-.22,3.42.26,4.86.83,2.45,3.72,1.9,5.88,1.87,2.45,0,4.48.12,5.06-2.7a11.66,11.66,0,0,0,.2-1.81c2.28,0,4.78,0,5.43-2.51a23.36,23.36,0,0,0,.51-6.4,4.87,4.87,0,0,0,2.28-.31C61.52,20,61.35,18.8,61.29,18ZM1.48,19.08c-.07-.63,0-1.33,0-1.92,0-.38,0-.75,0-1.13,0-.09.09-.56,0-.6a5,5,0,0,1,.94,0H3C3,16.62,3,17.89,3,19.17A6.5,6.5,0,0,1,1.48,19.08Zm3.41,7a19.18,19.18,0,0,1-.22-3.4c-.15-3-.23-5.91-.2-8.86a25.24,25.24,0,0,1,.22-5.5c.48-2,2.41-1.76,4.28-1.8-.06,3.25.25,6.58.19,9.79-.08,3.95-.3,8.12-.13,12.14C6.83,28.4,5.49,28.53,4.89,26.07ZM19,30c-.1,1.51.05,2.59-1.54,3a15.39,15.39,0,0,1-3.11,0,3.66,3.66,0,0,1-3.79-2.54c-.34-1.28.05-3.2,0-4.54,0-3.2-.09-6.39,0-9.59,0-2.11,0-4.22-.06-6.34,0-1.67.12-3.34.1-5,0-2.75,1.82-3.38,4.34-3.38a4.41,4.41,0,0,1,3.5,1.74c.4.63.21,2.18.25,3,.08,1.64.11,3.28.16,4.91.09,3.14.16,6.27.2,9.41S19.18,26.89,19,30Zm1.44-10.84c0-1.21,0-2.43,0-3.64,3.15-.13,6.32-.15,9.47-.18,3.67,0,7.58.38,11.23.08,0,1.21,0,2.43,0,3.64C34.19,19.43,27.28,19.09,20.42,19.17ZM51,9.78c-.06,2.12-.1,4.23-.06,6.34.06,3,0,6,0,9,0,3.31,1,7.59-3.72,7.66-.78,0-2.23.3-3,0-2.1-.93-1.72-2.56-1.75-4.26-.06-3-.06-5.91,0-8.87s.12-6.14.22-9.21c.1-3.32-.89-9,3.89-9,2.84,0,3.93,1,4.4,3.94A26.45,26.45,0,0,1,51,9.78Zm5.78,13.13a15.28,15.28,0,0,1-.17,3.1c-.6,2.34-2.06,2.22-4.14,2.25,0-1.48-.16-3-.14-4.37,0-2.59.05-5.17,0-7.77-.06-3.25.18-6.54.08-9.8A11.42,11.42,0,0,1,55,6.55c1.56.42,1.59.58,1.75,2.34.2,2.18,0,4.46.08,6.64C56.82,18,56.84,20.45,56.75,22.91Zm1.57-3.62c-.06-1.3-.13-2.58-.14-3.76a1.85,1.85,0,0,0,0-.23c.33,0,.65,0,1,0s.48-.09.62.28a4.56,4.56,0,0,1,0,1.11c0,.4.07.79.11,1.19s0,.64,0,1a3,3,0,0,0,0,.34.42.42,0,0,1-.15,0C59.28,19.24,58.8,19.28,58.32,19.29Z"/><path class="cls-1" d="M12,4.94a10.76,10.76,0,0,0-.26,5.26c.11.88,1.51.89,1.4,0a10,10,0,0,1,.2-4.89C13.71,4.48,12.36,4.12,12,4.94Z"/><path class="cls-1" d="M13.94,2.88a.7.7,0,0,0,0,1.39A.7.7,0,0,0,13.94,2.88Z"/><path class="cls-1" d="M44.33,4.3a5.2,5.2,0,0,0-.63,2.46,15.85,15.85,0,0,0-.09,3c.08.89,1.47.9,1.4,0a14.91,14.91,0,0,1,0-2.5A4.61,4.61,0,0,1,45.53,5C46.07,4.28,44.86,3.59,44.33,4.3Z"/><path class="cls-1" d="M46.31,2.52a.7.7,0,0,0,0,1.39A.7.7,0,0,0,46.31,2.52Z"/></g></g></svg>