<svg xmlns="http://www.w3.org/2000/svg" viewBox="0 0 44.94 61.83"><defs><style>.cls-1{fill:#333;}</style></defs><g id="Capa_2" data-name="Capa 2"><g id="icon"><path class="cls-1" d="M44.4,38c.06-8.62,1.29-17.31-.17-25.88-.59-3.45-1.79-3.21-5.16-3.26s-6.57,0-9.85-.14l-.08,0c-.5-.31-1-.61-1.55-1-1.7-1.11-.79-1.21-.54-3a4.3,4.3,0,0,0-.59-3.17C24.94-.5,20.88-.37,19,1.06,16.79,2.7,18.3,4.41,17.8,6.39c-.23.88-2.1,1.44-3.17,2.23l-.12,0c-3.65.07-8.8-.73-12.26.68C.69,9.91.43,10.87.3,12.44.07,15.2.17,18.05.11,20.81,0,28.18,0,35.56.07,42.94q0,4.25.12,8.49c0,2.19-.39,5,.6,7.07,2,4,6.94,3.26,10.62,3.31,6.5.08,13-.27,19.47-.22,2.58,0,5.14-.25,7.71-.23,2.12,0,3.65.2,4.91-1.78,1.58-2.5.86-6.37.88-9.17C44.42,46.27,44.38,42.13,44.4,38ZM19,7.74A.71.71,0,0,0,19.34,7c-.42-2-1.12-4.23,1.43-5.22,1.53-.59,4.19-.42,4.89,1.41.42,1.11-.27,2.67-.75,3.64a.74.74,0,0,0,.11.85c1.59,1.32,4,2.06,5.2,3.71a3.05,3.05,0,0,1,.69,2.52c-.63,2.62-3.42,2.22-5.57,2.25-2.65,0-5.31.09-8,.08a8.22,8.22,0,0,1-2.48-.06c-1.47-.59-1-.72-1.23-1.93a15.12,15.12,0,0,1,0-2C13.94,9.9,17.16,8.62,19,7.74Zm13.45,6.73c1.3,0,2.6.18,3.89.16.45,0,1.47.16,1.39,0,.19.29,0,1.39,0,1.72,0,2.55,0,5.1.07,7.65q.06,10.92,0,21.85c0,2.56,0,5.12-.07,7.68,0,.25.12,1.51-.07,1.69-.64.62-4.21,0-5.2.11a79.2,79.2,0,0,1-8.85.4c-3.31-.09-6.54.15-9.87.18-2.06,0-5.75.54-6.6-1.45-.51-1.2-.36-3.09-.43-4.38-.38-6.6-.08-13.19-.29-19.79,0-3,.08-6,.11-8.95,0-1.2-.74-5.35-.09-6.38s4-.65,5.69-.56c0,1.23.26,2.46,1.26,3,1.81.88,5.35.12,7.25.1,2.43,0,4.85,0,7.28,0C31.1,17.33,32.48,16.83,32.47,14.47ZM43.18,31.82c-.29,6.61-.13,13.23-.2,19.85,0,3.63.76,8-3.93,8.3-2.17.12-4.37.23-6.56.24-4.81,0-9.59.08-14.4.19-2.7.06-5.4,0-8.1,0a22.84,22.84,0,0,1-4.53-.12c-4.07-1-3.81-4.35-3.86-7.62,0-2.56-.08-5.13-.11-7.69-.07-5.73-.12-11.47-.08-17.2,0-3.16.06-6.33.15-9.49.05-1.67-.47-4.86.22-6.41,1.1-2.5,7.86-2,11.43-1.89a4.24,4.24,0,0,0-.87,1.88.67.67,0,0,0-.08.33c0,.25,0,.55,0,.87-1.82-.12-4.94-.49-6.22.25s-.86,2.5-.82,3.85c.14,4.39-.12,8.79-.08,13.18.21,7-.14,14,.36,21,.12,1.64,0,4.2,1.34,5.32.67.55,3,.56,3.94.64a39.11,39.11,0,0,0,5.52,0C20,57,23.68,56.89,27.37,57c3,.06,6-.14,9-.26,1.07,0,2.22,0,2.77-1.05.67-1.28.15-4.22.16-5.59.07-8.26,0-16.52,0-24.78,0-3.24.09-6.5-.09-9.73s-4.22-2.54-6.82-2.5c0-.25-.09-.52-.15-.8a4.19,4.19,0,0,0-1.13-2.11l3.63,0,3.79.05c2.47,0,3.63-.29,4.4,2.24C44.68,18.32,43.45,25.81,43.18,31.82Z"/><path class="cls-1" d="M23.7,24A37.5,37.5,0,0,0,17.34,24c-.88.09-.89,1.48,0,1.39a36.5,36.5,0,0,1,6.36.07,16.57,16.57,0,0,0,3-.18,27.68,27.68,0,0,1,4.46.07c.89,0,.89-1.35,0-1.39-1.09-.05-2.17-.25-3.26-.21C26.48,23.76,25.13,24.12,23.7,24Z"/><path class="cls-1" d="M17.1,31.49c-.89,0-.9,1.43,0,1.4,2.49-.09,5-.11,7.44,0a53.86,53.86,0,0,0,6.85-.16c.89,0,.89-1.45,0-1.39C26.63,31.67,21.89,31.33,17.1,31.49Z"/><path class="cls-1" d="M31.55,39c-2.5.1-5,.16-7.51.13s-4.84-.32-7.29.33a.7.7,0,0,0,.37,1.34c2.57-.68,5.19-.29,7.82-.27,2.2,0,4.41,0,6.61-.14C32.44,40.3,32.45,38.91,31.55,39Z"/><path class="cls-1" d="M31.52,46.63c-4.92.64-9.76-.9-14.6,0-.89.16-.51,1.5.37,1.34,4.67-.86,9.46.68,14.23.05C32.39,47.9,32.4,46.51,31.52,46.63Z"/><path class="cls-1" d="M14.44,24.17a7.71,7.71,0,0,0-1.27,0c-.9,0-.9,1.43,0,1.39a9,9,0,0,1,1.27,0C15.33,25.66,15.32,24.27,14.44,24.17Z"/><path class="cls-1" d="M13.08,32.92s.64,0,.52-.18v0a.76.76,0,0,0,1.09-.11h0a.71.71,0,0,0-.1-.85c-.41-.46-1.37-.3-1.88-.17C11.84,31.79,12.21,33.14,13.08,32.92Z"/><path class="cls-1" d="M14.22,39.53H13a.7.7,0,0,0,0,1.39h1.25A.7.7,0,0,0,14.22,39.53Z"/><path class="cls-1" d="M14.14,46.67l-1.15,0c-.89,0-.9,1.43,0,1.4l1.15,0C15,48,15,46.63,14.14,46.67Z"/><path class="cls-1" d="M22.3,5h0a.7.7,0,0,0,0-1.39h0A.7.7,0,0,0,22.3,5Z"/><path class="cls-1" d="M16.42,14.05c0-.6-.16-1.24.21-1.78A3.32,3.32,0,0,1,18,11.2c.81-.39.1-1.59-.7-1.21a4.63,4.63,0,0,0-1.88,1.6c-.53.79-.31,1.58-.38,2.46S16.35,14.94,16.42,14.05Z"/><path class="cls-1" d="M19.37,10.39a.7.7,0,0,0,0-1.39A.7.7,0,0,0,19.37,10.39Z"/></g></g></svg>