<?xml version="1.0" encoding="utf-8"?>
<!-- Generator: Adobe Illustrator 25.2.1, SVG Export Plug-In . SVG Version: 6.00 Build 0)  -->
<svg version="1.1" id="Capa_1" xmlns="http://www.w3.org/2000/svg" xmlns:xlink="http://www.w3.org/1999/xlink" x="0px" y="0px"
	 viewBox="0 0 24 24" style="enable-background:new 0 0 24 24;" xml:space="preserve">
<style type="text/css">
	.st0{fill:#FFFFFF;}
</style>
<path class="st0" d="M7.5,2c-1.8,1.2-3,3.2-3,5.5s1.2,4.4,3,5.5C4.5,13,2,10.5,2,7.5C2,4.5,4.5,2,7.5,2 M19.1,3.5l1.4,1.4L4.9,20.5
	l-1.4-1.4L19.1,3.5 M12.9,5.9L11.4,5L10,6l0.4-1.7L9,3.2l1.8-0.1l0.6-1.6L12,3.1l1.7,0l-1.3,1.1L12.9,5.9 M9.6,9.5L8.4,8.8L7.3,9.6
	l0.3-1.3L6.6,7.4l1.4-0.1l0.4-1.3l0.5,1.3l1.4,0L9.2,8.2L9.6,9.5 M19,13.5c0,3-2.5,5.5-5.5,5.5c-1.2,0-2.4-0.4-3.3-1.1l7.7-7.7
	C18.6,11.1,19,12.3,19,13.5 M14.6,20.1l2.8-1.1l-0.2,3.4L14.6,20.1 M18.9,17.4l1.1-2.8l2.2,2.5L18.9,17.4 M20.1,12.4l-1.1-2.8
	l3.3,0.2L20.1,12.4 M9.6,18.9l2.8,1.1l-2.5,2.2L9.6,18.9z"/>
</svg>
