<svg xmlns="http://www.w3.org/2000/svg" viewBox="0 0 51.19 61.12"><defs><style>.cls-1{fill:#333;}</style></defs><g id="Capa_2" data-name="Capa 2"><g id="icon"><path class="cls-1" d="M50.93,32a27.17,27.17,0,0,0-6.22-14.55,28.23,28.23,0,0,1,2-2.12,3.86,3.86,0,0,0,1.1.81c.82.25,1.36-.48,1.84-1.07s1.18-1.5.8-2.37-1.86-1.87-2.67-2.55-2-1.92-3.17-2.3-1.75.36-2.35,1.12c-.48.59-1.05,1.08-.71,1.85a3.66,3.66,0,0,0,.76,1c-.56.6-1.11,1.2-1.64,1.81a24.44,24.44,0,0,0-9.93-3.84c0-.6-.08-1.18-.08-1.77A4.09,4.09,0,0,0,32,7.84c1.15-.41,1.17-1,1.24-2.24.07-1.45.28-3.92-1-4.9C30.67-.44,27.12.15,25.37.15c-3.46.11-8.29-.95-8.49,3.58,0,.92-.33,3,.5,3.73a4.17,4.17,0,0,0,2.31.67c0,.64,0,1.29,0,1.94a.42.42,0,0,0,0,.16,26.15,26.15,0,0,0-18,15.71C-2.1,35.77.36,48.52,8.89,55.3c3.21,2.54,6.7,4.77,10.79,5.37,6.23.92,13.14.59,18.8-2.45a27.38,27.38,0,0,0,9.73-9.28C51.08,44.22,51.59,37.33,50.93,32ZM44.34,9.26c.67.11,1.92,1.44,2.43,1.84a12.38,12.38,0,0,1,1.9,1.63c.5.65.08,1.45-.54,1.93a29.52,29.52,0,0,1-2.77-2.18,11.84,11.84,0,0,1-2.45-2.19C43.27,9.78,43.86,9.19,44.34,9.26Zm-1,3.46c.45.33.9.64,1.27.93l1,.77c-.61.64-1.25,1.27-1.82,2-.43-.46-.86-.91-1.34-1.34-.22-.2-.47-.37-.7-.56C42.25,13.87,42.8,13.3,43.34,12.72ZM18.27,5.54a5.24,5.24,0,0,1,0-1.81c.29-1.56,1.15-1.76,2.76-2a34.68,34.68,0,0,1,4.33-.18c1.29,0,2.62-.06,3.92.06s2,.06,2.44,1.47a5.83,5.83,0,0,1,.11,2.53c-.49,1.31-1.55.9-3,.94s-3.11.1-4.67.11S18.85,7.17,18.27,5.54Zm2.81,2.61c1,0,2-.1,2.63-.1,1.55,0,3.1-.06,4.65-.11l.88,0c0,.54,0,1.08.07,1.62a30.39,30.39,0,0,0-3.13-.24,28.31,28.31,0,0,0-5.06.57C21.09,9.33,21.09,8.74,21.08,8.15ZM48.55,44.71c-1.34,4.49-4.95,8.12-8.64,10.88-4.47,3.34-10,4.18-15.5,4.06a20.84,20.84,0,0,1-12.23-3.72A24.59,24.59,0,0,1,2,30,25.1,25.1,0,0,1,26.18,10.74c11.19.23,20.14,7,22.8,18A31.78,31.78,0,0,1,48.55,44.71Z"/><path class="cls-1" d="M38.6,18.64s-.05,0-.07,0a.27.27,0,0,0-.07-.08,21.73,21.73,0,0,0-25.72.21A22.63,22.63,0,0,0,5,42.6C7.23,50.73,18.05,57.33,26.2,56.83c2.56-.16,5.62-.6,7.83-1.95a33.77,33.77,0,0,0,9.68-9.41C49.75,36.44,46.8,25,38.6,18.64Zm6.6,12.57a19.2,19.2,0,0,1-5.3,16.68c-2.82,3-5.81,6-9.92,6.93a18.14,18.14,0,0,1-13.12-1.57C12.24,50.67,7.09,46.49,6.05,41A22.06,22.06,0,0,1,9.18,24.41c6.55-9.4,19.34-11.11,28.53-4.7C41.36,22.58,44.39,26.56,45.2,31.21Z"/><path class="cls-1" d="M34.91,24.5l-8,8.1a2.74,2.74,0,0,0-3.53-.11c-1.19.95-1.69,3.36-.57,4.55a3.47,3.47,0,0,0,4.45.26,2.81,2.81,0,0,0,.54-3.62l8.09-8.2A.69.69,0,0,0,34.91,24.5ZM24,36.23c-.62-.46-.48-1.74-.08-2.33a1.43,1.43,0,0,1,2.33,0s.05,0,.07.06a.2.2,0,0,0,0,.08C27.78,35.68,25.6,37.42,24,36.23Z"/><path class="cls-1" d="M17.54,20.9C12.86,23.39,10.45,28,9.25,33c-.21.88,1.13,1.25,1.34.38,1.12-4.67,3.27-9,7.65-11.3C19,21.68,18.33,20.48,17.54,20.9Z"/><path class="cls-1" d="M9.57,36.27a.7.7,0,0,0,0,1.39A.7.7,0,0,0,9.57,36.27Z"/><path class="cls-1" d="M26,5c-.05-.67-.1-1.33-.14-2-.07-.89-1.46-.9-1.4,0l.15,2C24.65,5.86,26.05,5.87,26,5Z"/><path class="cls-1" d="M29.57,4.43c0-.54,0-1.08-.05-1.63,0-.89-1.43-.9-1.4,0l.06,1.63C28.21,5.33,29.6,5.33,29.57,4.43Z"/><path class="cls-1" d="M22,5a7.74,7.74,0,0,1-.07-1.8c.06-.89-1.34-.89-1.39,0a9.85,9.85,0,0,0,.11,2.17C20.75,6.22,22.09,5.85,22,5Z"/></g></g></svg>