<?xml version="1.0" encoding="utf-8"?>
<!-- Generator: Adobe Illustrator 25.2.1, SVG Export Plug-In . SVG Version: 6.00 Build 0)  -->
<svg version="1.1" id="Capa_1" xmlns="http://www.w3.org/2000/svg" xmlns:xlink="http://www.w3.org/1999/xlink" x="0px" y="0px"
	 viewBox="0 0 30 25" style="enable-background:new 0 0 30 25;" xml:space="preserve">
<style type="text/css">
	.st0{fill:#FFFFFF;}
</style>
<g id="Capa_2_1_">
	<g id="Capa_1-2">
		<path class="st0" d="M3.5,0h23C28.4,0,30,1.6,30,3.5l0,0C30,5.4,28.4,7,26.5,7h-23C1.6,7,0,5.4,0,3.5l0,0C0,1.6,1.6,0,3.5,0z"/>
		<path class="st0" d="M3.5,9h23c1.9,0,3.5,1.6,3.5,3.5l0,0c0,1.9-1.6,3.5-3.5,3.5h-23C1.6,16,0,14.4,0,12.5l0,0C0,10.6,1.6,9,3.5,9
			z"/>
		<path class="st0" d="M3.5,18h23c1.9,0,3.5,1.6,3.5,3.5l0,0c0,1.9-1.6,3.5-3.5,3.5h-23C1.6,25,0,23.4,0,21.5l0,0
			C0,19.6,1.6,18,3.5,18z"/>
	</g>
</g>
</svg>
